<svg width="40" height="40" viewBox="0 0 40 40" fill="none" xmlns="http://www.w3.org/2000/svg">
<rect width="40" height="40" rx="6" fill="white"/>
<path d="M21.4417 27.4993C21.2952 27.7519 21.0849 27.9616 20.8319 28.1073C20.5788 28.253 20.292 28.3297 20 28.3297C19.708 28.3297 19.4212 28.253 19.1681 28.1073C18.9151 27.9616 18.7048 27.7519 18.5583 27.4993M25 16.666C25 15.3399 24.4732 14.0682 23.5355 13.1305C22.5979 12.1928 21.3261 11.666 20 11.666C18.6739 11.666 17.4021 12.1928 16.4645 13.1305C15.5268 14.0682 15 15.3399 15 16.666C15 22.4993 12.5 24.166 12.5 24.166H27.5C27.5 24.166 25 22.4993 25 16.666Z" stroke="#667085" stroke-width="1.66667" stroke-linecap="round" stroke-linejoin="round"/>
</svg>
