<svg width="24" height="25" viewBox="0 0 24 25" fill="none" xmlns="http://www.w3.org/2000/svg">
<path d="M5.05499 3.74569C4.98913 3.67144 4.90918 3.61101 4.81979 3.56789C4.7304 3.52477 4.63334 3.49982 4.53423 3.49449C4.43513 3.48916 4.33595 3.50355 4.24245 3.53683C4.14895 3.57011 4.06298 3.62162 3.98953 3.68837C3.91608 3.75512 3.85661 3.83578 3.81457 3.92568C3.77252 4.01559 3.74874 4.11294 3.7446 4.2121C3.74045 4.31126 3.75603 4.41026 3.79043 4.50336C3.82483 4.59645 3.87737 4.68179 3.94499 4.75444L5.74874 6.73913C2.34374 8.82881 0.879366 12.0501 0.814679 12.1963C0.772035 12.2922 0.75 12.396 0.75 12.501C0.75 12.606 0.772035 12.7098 0.814679 12.8057C0.847491 12.8798 1.64155 14.6404 3.40687 16.4057C5.75905 18.7569 8.72999 20.0001 12 20.0001C13.6806 20.0096 15.3442 19.6636 16.8816 18.9848L18.9441 21.2544C19.0099 21.3287 19.0899 21.3891 19.1793 21.4322C19.2686 21.4754 19.3657 21.5003 19.4648 21.5056C19.5639 21.511 19.6631 21.4966 19.7566 21.4633C19.8501 21.43 19.9361 21.3785 20.0095 21.3118C20.083 21.245 20.1424 21.1643 20.1845 21.0744C20.2265 20.9845 20.2503 20.8872 20.2544 20.788C20.2586 20.6889 20.243 20.5899 20.2086 20.4968C20.1742 20.4037 20.1217 20.3183 20.0541 20.2457L5.05499 3.74569ZM13.3987 15.1541C12.8105 15.4636 12.136 15.569 11.4814 15.4536C10.8268 15.3382 10.229 15.0087 9.78189 14.5168C9.33481 14.0249 9.06377 13.3984 9.01134 12.7358C8.9589 12.0731 9.12803 11.4118 9.49218 10.8557L13.3987 15.1541ZM23.1853 12.8057C23.1459 12.8938 22.1962 14.9966 20.0578 16.9119C19.9104 17.0442 19.7167 17.1128 19.519 17.1028C19.3212 17.0928 19.1354 17.005 19.0022 16.8585L9.50624 6.41288C9.4154 6.31319 9.35312 6.19086 9.32596 6.05875C9.29879 5.92665 9.30776 5.78966 9.3519 5.66222C9.39604 5.53479 9.47373 5.42161 9.57679 5.33461C9.67984 5.24761 9.80445 5.19001 9.93749 5.16788C10.6192 5.05531 11.309 4.99919 12 5.00006C15.27 5.00006 18.2409 6.24319 20.5931 8.59538C22.3584 10.3607 23.1525 12.1223 23.1853 12.1963C23.2279 12.2922 23.25 12.396 23.25 12.501C23.25 12.606 23.2279 12.7098 23.1853 12.8057Z" fill="#5E718D"/>
</svg>
